<?xml version="1.0" encoding="utf-8"?>
<!-- Generator: Adobe Illustrator 15.0.2, SVG Export Plug-In . SVG Version: 6.00 Build 0)  -->
<!DOCTYPE svg PUBLIC "-//W3C//DTD SVG 1.1//EN" "http://www.w3.org/Graphics/SVG/1.1/DTD/svg11.dtd">
<svg version="1.1" id="Ebene_1" xmlns="http://www.w3.org/2000/svg" xmlns:xlink="http://www.w3.org/1999/xlink" x="0px" y="0px"
	 width="255.12px" height="85.04px" viewBox="0 0 255.12 85.04" enable-background="new 0 0 255.12 85.04" xml:space="preserve">
<g>
	<path d="M123.626,19.818h7.577v1.995h-5.208v2.491h4.515v1.841h-4.515v4.456h-2.369V19.818z"/>
	<path d="M131.957,25.192c0.12-2.006,1.918-2.611,3.67-2.611c1.556,0,3.428,0.349,3.428,2.221v4.063c0,0.71,0.076,1.419,0.272,1.737
		h-2.176c-0.07-0.243-0.137-0.498-0.151-0.756c-0.677,0.709-1.678,0.966-2.629,0.966c-1.478,0-2.655-0.739-2.655-2.339
		c0-1.769,1.327-2.191,2.655-2.373c1.315-0.194,2.538-0.15,2.538-1.025c0-0.921-0.633-1.059-1.389-1.059
		c-0.815,0-1.343,0.332-1.423,1.177H131.957z M136.909,26.779c-0.36,0.32-1.118,0.333-1.781,0.454
		c-0.666,0.136-1.269,0.361-1.269,1.148c0,0.799,0.62,0.995,1.313,0.995c1.677,0,1.736-1.327,1.736-1.795V26.779z"/>
	<path d="M146.038,25.542c-0.136-0.875-0.697-1.344-1.586-1.344c-1.375,0-1.829,1.39-1.829,2.537c0,1.117,0.438,2.463,1.783,2.463
		c0.996,0,1.568-0.635,1.706-1.587h2.07c-0.275,2.068-1.708,3.2-3.762,3.2c-2.357,0-3.942-1.66-3.942-4.001
		c0-2.433,1.451-4.229,3.984-4.229c1.845,0,3.537,0.968,3.673,2.961H146.038z"/>
	<path d="M149.539,19.818h2.145v4.063h0.044c0.546-0.874,1.482-1.301,2.281-1.301c2.28,0,2.854,1.285,2.854,3.219v4.802h-2.144
		V26.19c0-1.282-0.379-1.917-1.376-1.917c-1.163,0-1.66,0.649-1.66,2.236v4.092h-2.145V19.818z"/>
	<path d="M158.545,19.818h2.146v4.063h0.043c0.546-0.874,1.481-1.301,2.281-1.301c2.278,0,2.854,1.285,2.854,3.219v4.802h-2.144
		V26.19c0-1.282-0.38-1.917-1.37-1.917c-1.17,0-1.664,0.649-1.664,2.236v4.092h-2.146V19.818z"/>
	<path d="M171.293,22.581c2.461,0,4.048,1.633,4.048,4.123c0,2.477-1.587,4.107-4.048,4.107c-2.446,0-4.03-1.631-4.03-4.107
		C167.263,24.213,168.847,22.581,171.293,22.581z M171.293,29.198c1.466,0,1.908-1.255,1.908-2.494c0-1.253-0.442-2.506-1.908-2.506
		c-1.448,0-1.885,1.253-1.885,2.506C169.408,27.943,169.845,29.198,171.293,29.198z"/>
	<path d="M182.052,25.542c-0.14-0.875-0.694-1.344-1.587-1.344c-1.371,0-1.829,1.39-1.829,2.537c0,1.117,0.442,2.463,1.786,2.463
		c0.998,0,1.569-0.635,1.704-1.587h2.066c-0.269,2.068-1.702,3.2-3.761,3.2c-2.353,0-3.941-1.66-3.941-4.001
		c0-2.433,1.454-4.229,3.99-4.229c1.842,0,3.535,0.968,3.67,2.961H182.052z"/>
	<path d="M185.551,19.818h2.145v4.063h0.048c0.541-0.874,1.479-1.301,2.279-1.301c2.28,0,2.854,1.285,2.854,3.219v4.802h-2.146
		V26.19c0-1.282-0.377-1.917-1.372-1.917c-1.163,0-1.663,0.649-1.663,2.236v4.092h-2.145V19.818z"/>
	<path d="M196.176,28.064c0.011,0.935,0.8,1.313,1.647,1.313c0.616,0,1.4-0.242,1.4-0.995c0-0.649-0.892-0.874-2.431-1.207
		c-1.239-0.273-2.477-0.712-2.477-2.085c0-1.995,1.72-2.509,3.396-2.509c1.709,0,3.276,0.576,3.443,2.493h-2.036
		c-0.063-0.831-0.696-1.059-1.464-1.059c-0.487,0-1.194,0.092-1.194,0.727c0,0.77,1.205,0.875,2.429,1.163
		c1.253,0.285,2.478,0.74,2.478,2.188c0,2.054-1.781,2.718-3.567,2.718c-1.807,0-3.578-0.68-3.667-2.747H196.176z"/>
	<path d="M207.972,25.542c-0.134-0.875-0.694-1.344-1.589-1.344c-1.368,0-1.821,1.39-1.821,2.537c0,1.117,0.437,2.463,1.78,2.463
		c0.997,0,1.57-0.635,1.705-1.587h2.07c-0.272,2.068-1.709,3.2-3.759,3.2c-2.357,0-3.942-1.66-3.942-4.001
		c0-2.433,1.449-4.229,3.985-4.229c1.844,0,3.533,0.968,3.67,2.961H207.972z"/>
	<path d="M211.405,19.818h2.143v4.063h0.049c0.547-0.874,1.479-1.301,2.281-1.301c2.278,0,2.849,1.285,2.849,3.219v4.802h-2.144
		V26.19c0-1.282-0.375-1.917-1.371-1.917c-1.165,0-1.664,0.649-1.664,2.236v4.092h-2.143V19.818z"/>
	<path d="M227.611,30.601h-2.036v-1.088h-0.047c-0.545,0.875-1.479,1.298-2.385,1.298c-2.281,0-2.854-1.282-2.854-3.217v-4.801
		h2.146v4.409c0,1.286,0.377,1.92,1.373,1.92c1.159,0,1.66-0.65,1.66-2.236v-4.093h2.144V30.601z"/>
	<path d="M229.385,19.818h2.143v10.783h-2.143V19.818z"/>
	<path d="M234.991,27.218c0.057,1.358,0.722,1.979,1.914,1.979c0.863,0,1.556-0.531,1.695-1.013h1.885
		c-0.603,1.843-1.885,2.626-3.653,2.626c-2.458,0-3.987-1.688-3.987-4.107c0-2.34,1.615-4.123,3.987-4.123
		c2.655,0,3.938,2.237,3.79,4.638H234.991z M238.478,25.857c-0.194-1.086-0.664-1.659-1.704-1.659c-1.361,0-1.751,1.058-1.782,1.659
		H238.478z"/>
	<path d="M125.242,44.335c0,1.434,1.115,1.992,2.385,1.992c0.83,0,2.101-0.242,2.101-1.344c0-1.162-1.615-1.361-3.203-1.783
		c-1.602-0.422-3.217-1.043-3.217-3.064c0-2.206,2.082-3.262,4.031-3.262c2.25,0,4.321,0.981,4.321,3.473h-2.295
		c-0.077-1.298-0.999-1.631-2.129-1.631c-0.758,0-1.633,0.317-1.633,1.222c0,0.832,0.514,0.938,3.218,1.631
		c0.785,0.195,3.198,0.695,3.198,3.142c0,1.979-1.553,3.457-4.482,3.457c-2.387,0-4.619-1.178-4.592-3.834H125.242z"/>
	<path d="M133.189,42.505c0.121-2.006,1.919-2.611,3.67-2.611c1.558,0,3.434,0.347,3.434,2.22v4.06c0,0.709,0.07,1.42,0.27,1.736
		h-2.179c-0.071-0.242-0.132-0.498-0.149-0.754c-0.679,0.709-1.677,0.967-2.63,0.967c-1.479,0-2.657-0.74-2.657-2.34
		c0-1.77,1.33-2.193,2.657-2.371c1.315-0.197,2.541-0.154,2.541-1.029c0-0.919-0.637-1.056-1.39-1.056
		c-0.816,0-1.347,0.331-1.42,1.177H133.189z M138.146,44.091c-0.362,0.318-1.119,0.332-1.786,0.453
		c-0.664,0.135-1.265,0.361-1.265,1.148c0,0.799,0.616,0.998,1.312,0.998c1.677,0,1.739-1.33,1.739-1.799V44.091z"/>
	<path d="M141.941,37.129h2.145v10.782h-2.145V37.129z"/>
	<path d="M145.412,46.298l4.068-4.576h-3.761v-1.616h6.58v1.616l-4.062,4.576h4.353v1.613h-7.179V46.298z"/>
	<path d="M153.831,37.129h2.145v3.929h0.031c0.528-0.802,1.497-1.164,2.461-1.164c1.558,0,3.232,1.253,3.232,4.106
		c0,2.869-1.675,4.123-3.232,4.123c-1.146,0-2.097-0.348-2.565-1.211h-0.031v0.998h-2.04V37.129z M157.731,41.51
		c-1.267,0-1.829,1.194-1.829,2.504c0,1.299,0.563,2.494,1.829,2.494s1.828-1.195,1.828-2.494
		C159.56,42.705,158.998,41.51,157.731,41.51z"/>
	<path d="M170.16,47.911h-2.032v-1.086h-0.049c-0.547,0.877-1.479,1.299-2.388,1.299c-2.279,0-2.853-1.283-2.853-3.219v-4.799h2.144
		v4.406c0,1.285,0.376,1.92,1.372,1.92c1.164,0,1.662-0.648,1.662-2.234v-4.092h2.144V47.911z"/>
	<path d="M171.797,40.106h2.04v1.447h0.03c0.391-0.98,1.45-1.659,2.489-1.659c0.155,0,0.338,0.03,0.471,0.076v1.992
		c-0.196-0.045-0.514-0.074-0.772-0.074c-1.568,0-2.114,1.133-2.114,2.505v3.518h-2.144V40.106z"/>
	<path d="M185.319,47.413c0,1.285-0.455,3.459-4.048,3.459c-1.543,0-3.338-0.727-3.441-2.506h2.128
		c0.197,0.801,0.847,1.072,1.601,1.072c1.191,0,1.735-0.816,1.719-1.934v-1.027h-0.027c-0.466,0.814-1.404,1.209-2.341,1.209
		c-2.343,0-3.339-1.783-3.339-3.925c0-2.025,1.163-3.867,3.354-3.867c1.027,0,1.812,0.347,2.325,1.253h0.027v-1.041h2.042V47.413z
		 M183.277,43.912c0-1.27-0.437-2.401-1.824-2.401c-1.207,0-1.737,1.056-1.737,2.22c0,1.117,0.424,2.337,1.737,2.337
		C182.676,46.067,183.277,45.028,183.277,43.912z"/>
	<path d="M191.412,37.129h1.026v6.675c-0.017,2.505,1.176,3.458,3.155,3.458c1.99,0,3.186-0.953,3.171-3.458v-6.675h1.027v6.901
		c0,2.221-1.195,4.107-4.198,4.107c-2.989,0-4.182-1.887-4.182-4.107V37.129z"/>
	<path d="M201.52,40.121h0.95v1.344h0.032c0.346-0.936,1.386-1.571,2.491-1.571c2.187,0,2.853,1.148,2.853,3.003v5.013h-0.951
		v-4.863c0-1.341-0.437-2.354-1.978-2.354c-1.513,0-2.415,1.147-2.447,2.672v4.544h-0.95V40.121z"/>
	<path d="M209.625,37.129h0.952v1.526h-0.952V37.129z M209.625,40.121h0.952v7.79h-0.952V40.121z"/>
	<path d="M211.549,40.121h1.054l2.447,6.841h0.031l2.414-6.841h0.983l-2.915,7.79h-1.012L211.549,40.121z"/>
	<path d="M219.733,44.272c0.018,1.389,0.739,3.066,2.567,3.066c1.388,0,2.145-0.816,2.448-1.994h0.951
		c-0.407,1.768-1.438,2.793-3.399,2.793c-2.479,0-3.52-1.902-3.52-4.123c0-2.052,1.041-4.12,3.52-4.12
		c2.509,0,3.506,2.189,3.428,4.378H219.733z M224.776,43.472c-0.045-1.434-0.933-2.778-2.476-2.778
		c-1.552,0-2.415,1.362-2.567,2.778H224.776z"/>
	<path d="M227.074,40.121h0.877v1.828h0.028c0.481-1.254,1.541-1.994,2.945-1.933v0.952c-1.721-0.092-2.9,1.176-2.9,2.793v4.15
		h-0.95V40.121z"/>
	<path d="M236.528,42.4c-0.041-1.178-0.952-1.706-2.035-1.706c-0.848,0-1.846,0.333-1.846,1.344c0,0.846,0.969,1.148,1.616,1.314
		l1.269,0.285c1.089,0.166,2.221,0.798,2.221,2.16c0,1.691-1.675,2.34-3.124,2.34c-1.813,0-3.05-0.846-3.2-2.746h0.951
		c0.072,1.283,1.023,1.947,2.293,1.947c0.891,0,2.131-0.393,2.131-1.48c0-0.906-0.846-1.209-1.708-1.422l-1.221-0.27
		c-1.241-0.332-2.177-0.753-2.177-2.083c0-1.584,1.555-2.189,2.931-2.189c1.553,0,2.793,0.816,2.852,2.505H236.528z"/>
	<path d="M239.132,37.129h0.949v1.526h-0.949V37.129z M239.132,40.121h0.949v7.79h-0.949V40.121z"/>
	<path d="M243.496,40.121h1.584v0.801h-1.584v5.253c0,0.619,0.089,0.982,0.769,1.029c0.271,0,0.545-0.016,0.815-0.047v0.814
		c-0.284,0-0.558,0.029-0.84,0.029c-1.272,0-1.71-0.42-1.695-1.75v-5.329h-1.361v-0.801h1.361v-2.343h0.951V40.121z"/>
	<path d="M245.887,40.121h1.007l2.571,6.644l2.399-6.644h0.949l-3.381,8.983c-0.545,1.314-0.861,1.691-2.049,1.691
		c-0.381-0.016-0.58-0.016-0.729-0.074v-0.803c0.225,0.047,0.438,0.078,0.648,0.078c0.849,0,1.042-0.5,1.362-1.225l0.333-0.891
		L245.887,40.121z"/>
	<path d="M130.466,61.329c0,2.234-1.299,4.119-3.683,4.119c-2.385,0-3.686-1.885-3.686-4.119s1.301-4.123,3.686-4.123
		C129.167,57.206,130.466,59.095,130.466,61.329z M124.05,61.329c0,1.662,0.904,3.32,2.732,3.32c1.829,0,2.732-1.658,2.732-3.32
		s-0.903-3.324-2.732-3.324C124.955,58.005,124.05,59.667,124.05,61.329z"/>
	<path d="M134.654,58.231h-1.54v6.992h-0.952v-6.992h-1.329v-0.801h1.329v-0.709c-0.015-1.344,0.361-2.279,1.886-2.279
		c0.275,0,0.505,0.016,0.804,0.061v0.814c-0.257-0.043-0.466-0.076-0.696-0.076c-1.058,0-1.026,0.668-1.041,1.512v0.678h1.54V58.231
		z"/>
	<path d="M143.1,54.442h1.153l4.227,10.781h-1.104l-1.313-3.352h-4.908l-1.299,3.352h-1.104L143.1,54.442z M141.469,60.995h4.249
		l-2.088-5.525L141.469,60.995z"/>
	<path d="M149.397,57.431h0.872v1.482h0.032c0.44-1.057,1.526-1.707,2.779-1.707c2.371,0,3.504,1.92,3.504,4.123
		c0,2.205-1.133,4.119-3.504,4.119c-1.164,0-2.296-0.588-2.702-1.703h-0.03v4.363h-0.951V57.431z M153.081,58.005
		c-2.1,0-2.732,1.557-2.732,3.324c0,1.615,0.71,3.32,2.732,3.32c1.811,0,2.552-1.705,2.552-3.32
		C155.633,59.712,154.892,58.005,153.081,58.005z"/>
	<path d="M157.995,57.431h0.875v1.482h0.029c0.438-1.057,1.527-1.707,2.778-1.707c2.374,0,3.507,1.92,3.507,4.123
		c0,2.205-1.133,4.119-3.507,4.119c-1.161,0-2.294-0.588-2.701-1.703h-0.032v4.363h-0.949V57.431z M161.678,58.005
		c-2.096,0-2.733,1.557-2.733,3.324c0,1.615,0.715,3.32,2.733,3.32c1.813,0,2.552-1.705,2.552-3.32
		C164.229,59.712,163.49,58.005,161.678,58.005z"/>
	<path d="M166.606,54.442h0.955v10.781h-0.955V54.442z"/>
	<path d="M169.333,54.442h0.957v1.525h-0.957V54.442z M169.333,57.431h0.957v7.793h-0.957V57.431z"/>
	<path d="M172.656,61.585c0.015,1.391,0.739,3.064,2.565,3.064c1.393,0,2.146-0.814,2.446-1.992h0.952
		c-0.405,1.768-1.436,2.791-3.398,2.791c-2.477,0-3.518-1.898-3.518-4.119c0-2.055,1.041-4.123,3.518-4.123
		c2.508,0,3.505,2.188,3.43,4.379H172.656z M177.699,60.784c-0.047-1.434-0.938-2.779-2.478-2.779c-1.555,0-2.416,1.361-2.565,2.779
		H177.699z"/>
	<path d="M186.836,65.224h-0.875v-1.479h-0.03c-0.41,1.012-1.648,1.703-2.778,1.703c-2.372,0-3.505-1.914-3.505-4.119
		c0-2.203,1.133-4.123,3.505-4.123c1.162,0,2.294,0.588,2.701,1.707h0.031v-4.471h0.951V65.224z M183.152,64.649
		c2.02,0,2.732-1.705,2.732-3.32c0-1.617-0.713-3.324-2.732-3.324c-1.813,0-2.555,1.707-2.555,3.324
		C180.598,62.944,181.339,64.649,183.152,64.649z"/>
	<path d="M193.517,61.677c-0.046,2.219,1.554,2.898,3.519,2.898c1.131,0,2.853-0.617,2.853-2.189c0-1.223-1.223-1.709-2.221-1.949
		l-2.398-0.588c-1.268-0.316-2.433-0.92-2.433-2.598c0-1.057,0.681-3.035,3.715-3.035c2.129,0,4.003,1.15,3.986,3.354h-1.025
		c-0.064-1.646-1.42-2.477-2.946-2.477c-1.403,0-2.701,0.541-2.701,2.143c0,1.012,0.754,1.436,1.63,1.646l2.629,0.65
		c1.522,0.404,2.795,1.07,2.795,2.838c0,0.74-0.306,3.078-4.123,3.078c-2.554,0-4.427-1.145-4.306-3.771H193.517z"/>
	<path d="M207.838,59.878c-0.256-1.16-0.965-1.873-2.205-1.873c-1.827,0-2.733,1.662-2.733,3.324s0.906,3.32,2.733,3.32
		c1.178,0,2.146-0.92,2.264-2.219h0.951c-0.257,1.873-1.481,3.018-3.215,3.018c-2.387,0-3.684-1.885-3.684-4.119
		s1.297-4.123,3.684-4.123c1.662,0,2.943,0.891,3.156,2.672H207.838z"/>
	<path d="M210.178,54.442h0.949v1.525h-0.949V54.442z M210.178,57.431h0.949v7.793h-0.949V57.431z"/>
	<path d="M213.499,61.585c0.014,1.391,0.739,3.064,2.568,3.064c1.389,0,2.145-0.814,2.441-1.992h0.956
		c-0.408,1.768-1.436,2.791-3.397,2.791c-2.478,0-3.519-1.898-3.519-4.119c0-2.055,1.041-4.123,3.519-4.123
		c2.507,0,3.502,2.188,3.426,4.379H213.499z M218.542,60.784c-0.046-1.434-0.936-2.779-2.475-2.779
		c-1.556,0-2.419,1.361-2.568,2.779H218.542z"/>
	<path d="M220.832,57.431h0.951v1.346h0.031c0.349-0.936,1.387-1.57,2.489-1.57c2.189,0,2.855,1.146,2.855,3.004v5.014h-0.952V60.36
		c0-1.342-0.44-2.355-1.977-2.355c-1.512,0-2.416,1.148-2.447,2.672v4.547h-0.951V57.431z"/>
	<path d="M234.382,59.878c-0.256-1.16-0.969-1.873-2.203-1.873c-1.828,0-2.735,1.662-2.735,3.324s0.907,3.32,2.735,3.32
		c1.176,0,2.144-0.92,2.263-2.219h0.951c-0.253,1.873-1.48,3.018-3.214,3.018c-2.388,0-3.687-1.885-3.687-4.119
		s1.299-4.123,3.687-4.123c1.657,0,2.943,0.891,3.152,2.672H234.382z"/>
	<path d="M237.33,61.585c0.016,1.391,0.739,3.064,2.567,3.064c1.388,0,2.142-0.814,2.446-1.992h0.952
		c-0.411,1.768-1.433,2.791-3.398,2.791c-2.478,0-3.518-1.898-3.518-4.119c0-2.055,1.04-4.123,3.518-4.123
		c2.506,0,3.502,2.188,3.428,4.379H237.33z M242.372,60.784c-0.045-1.434-0.935-2.779-2.475-2.779c-1.555,0-2.417,1.361-2.567,2.779
		H242.372z"/>
	<path d="M249.399,59.712c-0.047-1.178-0.949-1.707-2.038-1.707c-0.843,0-1.84,0.332-1.84,1.346c0,0.844,0.967,1.146,1.613,1.314
		l1.268,0.287c1.089,0.164,2.22,0.801,2.22,2.158c0,1.691-1.673,2.338-3.125,2.338c-1.81,0-3.051-0.842-3.202-2.746h0.951
		c0.077,1.283,1.029,1.947,2.296,1.947c0.895,0,2.128-0.391,2.128-1.479c0-0.906-0.847-1.209-1.704-1.418l-1.225-0.273
		c-1.236-0.332-2.172-0.756-2.172-2.086c0-1.584,1.555-2.188,2.928-2.188c1.556,0,2.796,0.814,2.855,2.506H249.399z"/>
</g>
<path d="M6.551,35.689H2.305v-2.681h4.246v-1.42c0-4.631,2.352-6.467,5.948-6.467h6.161V27.8h-6.008c-2.448,0-3.405,1.379-3.405,3.1
	v2.109h9.413v2.681H9.247v17.134H6.551V35.689z"/>
<path d="M20.66,25.122h2.697v11.555h0.064c1.005-3.023,3.105-3.671,6.462-3.671h3.86c5.051,0,6.651,3.099,6.651,6.616v13.201h-2.699
	V40.425c0-2.867-0.657-4.741-5.897-4.741h-0.691c-6.306,0-7.75,1.452-7.75,6.043v11.096H20.66V25.122z"/>
<g>
	<g>
		<path fill="#A00A2D" d="M45.78,47.046c0,2.409,1.137,3.406,4.167,3.406h6.336c4.442,0,5.854-0.193,5.854-3.102v-0.151
			c0-1.875-0.481-2.908-4.027-2.908h-9.127c-3.044,0-4.687-0.801-5.354-2.676c-0.008,0.302-0.022,0.602-0.022,0.905
			c0,1.205,0.063,2.396,0.184,3.569h1.99V47.046z M78.222,7.906c-16.391,0-30.122,11.414-33.699,26.72
			c1.23-1.061,3.539-1.62,7.661-1.62h4.547c6.68,0,7.608,2.143,7.608,4.896v1.035h-2.754v-0.193c0-2.985-1.791-3.06-5.027-3.06
			h-5.165c-4.235,0-5.166,0.458-5.166,2.677v0.728c0,1.606,0.482,2.525,3.581,2.525h7.817c4.443,0,7.475,0.498,7.475,5.777v0.076
			c0,5.472-4.548,5.664-8.162,5.664h-5.442c-2.525,0-4.957-0.003-6.563-1.132c4.127,14.504,17.469,25.136,33.29,25.136
			c19.107,0,34.615-15.505,34.615-34.614C112.837,23.413,97.33,7.906,78.222,7.906z"/>
	</g>
</g>
</svg>
