<?xml version="1.0" encoding="UTF-8"?>
<svg width="197px" height="39px" viewBox="0 0 197 39" version="1.1" xmlns="http://www.w3.org/2000/svg" xmlns:xlink="http://www.w3.org/1999/xlink">
    <!-- Generator: Sketch 45.1 (43504) - http://www.bohemiancoding.com/sketch -->
    <title>Page 1</title>
    <desc>Created with Sketch.</desc>
    <defs></defs>
    <g id="Farmdok-Startseite" stroke="none" stroke-width="1" fill="none" fill-rule="evenodd">
        <g id="Farmdok-|-Startseite" transform="translate(-212.000000, -10074.000000)">
            <g id="footer" transform="translate(0.000000, 10007.000000)">
                <g id="Group-8" transform="translate(212.000000, 67.000000)">
                    <g id="Page-1">
                        <polygon id="Fill-1" fill="#2A0900" points="52.4097728 31.697702 56.0436857 31.697702 56.0436857 23.2819961 66.4720884 23.2819961 66.4720884 19.9747547 56.0436857 19.9747547 56.0436857 14.3347653 67.8015034 14.3347653 67.8015034 11.0274435 52.4097728 11.0274435"></polygon>
                        <path d="M66.1571565,31.697702 L69.8795184,31.697702 L72.0065823,26.7073302 L81.785019,26.7073302 L83.8826,31.697702 L87.7231619,31.697702 L78.6241741,10.8800286 L75.2561442,10.8800286 L66.1571565,31.697702 Z M73.3359973,23.4886986 L76.8809252,15.220622 L80.4556041,23.4886986 L73.3359973,23.4886986 Z" id="Fill-2" fill="#2A0900"></path>
                        <path d="M89.851834,31.697702 L93.4854789,31.697702 L93.4854789,24.492675 L98.0349728,24.492675 L103.116233,31.697702 L107.400112,31.697702 L101.816569,23.8725672 C104.711531,23.0457569 106.750146,21.0082676 106.750146,17.6124701 L106.750146,17.5533969 C106.750146,15.7521468 106.129663,14.2166457 105.036648,13.0945498 C103.707233,11.7952879 101.668618,11.0274435 99.0690218,11.0274435 L89.851834,11.0274435 L89.851834,31.697702 Z M93.4854789,21.2740434 L93.4854789,14.3347653 L98.7736558,14.3347653 C101.461969,14.3347653 103.057267,15.5454442 103.057267,17.7600995 L103.057267,17.8191727 C103.057267,19.9157083 101.402735,21.2740434 98.8031388,21.2740434 L93.4854789,21.2740434 Z" id="Fill-3" fill="#2A0900"></path>
                        <polygon id="Fill-4" fill="#2A0900" points="110.00748 31.697702 113.581891 31.697702 113.581891 16.9332891 120.0518 26.6187472 120.17 26.6187472 126.698875 16.8742427 126.698875 31.697702 130.332788 31.697702 130.332788 11.0274435 126.462475 11.0274435 120.17 20.801565 113.877525 11.0274435 110.00748 11.0274435"></polygon>
                        <path d="M133.926229,31.697702 L141.636835,31.697702 C148.136227,31.697702 152.626487,27.1797818 152.626487,21.3626264 L152.626487,21.3035532 C152.626487,15.4863978 148.136227,11.0274435 141.636835,11.0274435 L133.926229,11.0274435 L133.926229,31.697702 Z M137.559873,28.3904607 L137.559873,14.3347653 L141.636835,14.3347653 C145.979412,14.3347653 148.815676,17.3171845 148.815676,21.3626264 L148.815676,21.4216728 C148.815676,25.4671147 145.979412,28.3904607 141.636835,28.3904607 L137.559873,28.3904607 Z" id="Fill-5" fill="#2A0900"></path>
                        <path d="M165.636528,31.9782193 C171.988237,31.9782193 176.478497,27.1059671 176.478497,21.2887849 L176.478497,21.2297385 C176.478497,15.4125563 172.047203,10.5994041 165.695494,10.5994041 C159.344053,10.5994041 154.853525,15.4716295 154.853525,21.2887849 L154.853525,21.3478581 C154.853525,27.1650135 159.284819,31.9782193 165.636528,31.9782193 Z M165.695494,28.6414682 C161.589049,28.6414682 158.664336,25.304717 158.664336,21.2887849 L158.664336,21.2297385 C158.664336,17.2138332 161.530083,13.9361284 165.636528,13.9361284 C169.742973,13.9361284 172.667686,17.2728796 172.667686,21.2887849 L172.667686,21.3478581 C172.667686,25.3637634 169.801939,28.6414682 165.695494,28.6414682 Z" id="Fill-6" fill="#2A0900"></path>
                        <polygon id="Fill-7" fill="#2A0900" points="178.676588 31.697702 182.310501 31.697702 182.310501 25.7033539 185.53058 22.3961125 192.59122 31.697702 196.993031 31.697702 188.012244 19.9157083 196.608948 11.0274435 192.148171 11.0274435 182.310501 21.4216728 182.310501 11.0274435 178.676588 11.0274435"></polygon>
                        <path d="M2.35904418,35.7905848 C1.17678419,34.8154482 0.309673279,33.6494494 0.0656398639,32.0024222 C-0.112799252,30.7980419 0.0862484762,29.6141121 0.497091306,28.4910513 C1.22931216,26.4899333 2.03743297,24.5172263 2.8337981,22.4797102 C2.91503714,23.1059022 2.97705864,23.6743075 3.06456952,24.2383976 C3.26194476,25.5092754 3.78020218,26.6640974 4.5182151,27.6931611 C5.77778218,29.4497846 5.96834952,31.3147448 5.30785007,33.2888724 L5.30785007,34.6486012 L4.80216313,34.6486012 L7.16656517,34.6486012 C7.58825238,34.0825814 8.05110857,33.548832 8.58161483,33.0626038 C9.63139701,32.1014046 10.911629,31.8123105 12.2730464,31.7785659 C14.1636567,31.7315539 15.906048,31.2329965 17.4769823,30.1670254 C17.4962267,30.1538653 17.649297,30.0072276 17.7417664,29.9919769 C16.4959759,31.8757525 15.2000376,33.8825259 13.9403097,35.6789246 C13.1406773,36.8188738 12.1011605,37.7296973 10.748052,38.1954348 C9.08304014,38.7681017 7.47581497,38.4371069 5.89273905,37.8424671 C5.71254435,37.7749028 5.5386215,37.6896192 5.3278985,37.5973991 L2.35904418,37.5973991 L2.35904418,35.7905848 Z M25.2122744,5.16059592 L34.7958286,5.16059592 L34.7958286,37.5973991 L17.8402664,37.5973991 L17.8402664,34.6486012 L31.8469932,34.6486012 L31.8469932,8.10943129 L25.2122744,8.10943129 L25.2122744,5.16059592 Z M21.9532244,21.2327672 C20.7074607,23.1165429 19.4114955,25.1233162 18.1517676,26.9197418 C17.3521352,28.0596615 16.3126185,28.9704984 14.9595367,29.4362224 C13.2945249,30.0088894 11.6872997,29.6779026 10.104197,29.0832574 C9.92303741,29.0153393 9.74823007,28.9294902 9.53597932,28.8366992 C10.4747446,27.1824352 11.4010467,25.5792305 12.7930728,24.303421 C13.842855,23.342195 15.1230869,23.0531276 16.4845044,23.0193562 C18.3751147,22.9723442 20.117506,22.4737868 21.6884671,21.4078158 C21.7077114,21.3946556 21.860755,21.248018 21.9532244,21.2327672 Z M8.12516449,28.1313052 C6.18403102,26.9141668 4.61902014,25.5508196 4.27709782,23.2432125 C4.09867211,22.038859 4.29770912,20.8549024 4.70856803,19.7318684 C5.44079156,17.7307237 6.24889361,15.7580434 7.04528286,13.7205005 C7.1264951,14.3467193 7.1885166,14.9150978 7.27602748,15.4791879 C7.47340272,16.7500657 7.99166014,17.9048878 8.72969986,18.9339514 C10.0259063,20.7416878 10.1899925,22.6641933 9.45953796,24.7023259 C9.05578177,25.8299163 8.59182667,26.9375656 8.12516449,28.1313052 Z M26.3602886,12.5927761 C25.1502529,14.4225978 23.968521,16.2728433 22.7138052,18.0715739 C22.2915015,18.6777978 21.7245703,19.2063475 21.1498932,19.6803268 C19.5865173,20.968948 17.786929,21.1404854 15.8896448,20.6331367 C15.2918905,20.4740358 14.7122816,20.245221 14.0763603,20.0327826 C15.1050755,18.2342932 16.0784431,16.4920091 17.6770914,15.2102762 C18.5588741,14.5038905 19.5958446,14.2347912 20.6897977,14.2057638 C22.7167803,14.1528552 24.6206848,13.724521 26.3602886,12.5927761 Z M12.6907936,19.2818776 C11.6112336,18.637701 10.728352,17.9576087 10.0140327,17.0748611 C8.55336476,15.2678216 8.50723728,13.2316457 9.19826503,11.1574367 C9.78310041,9.40105442 10.5292078,7.69881361 11.2015004,5.9711102 C11.3290278,5.64331293 11.4429661,5.30988707 11.6323273,4.97378095 C11.6607382,5.29487755 11.6862544,5.61597415 11.7175868,5.93626667 C11.8762321,7.59133469 12.5614169,9.03894966 13.4702167,10.3999918 C14.2551612,11.5747551 14.6465078,12.8501626 14.3967332,14.2679461 C14.2983404,14.8241026 14.1874039,15.3871205 13.9978283,15.9165279 C13.5988162,17.0312531 13.1440008,18.1246701 12.6907936,19.2818776 Z M8.25665864,8.10943129 L5.30785007,8.10943129 L5.30785007,14.006968 L2.35904418,14.006968 L2.35904418,5.16059592 L8.25665864,5.16059592 L8.25665864,8.10943129 Z M23.1273712,0 C23.0360811,2.63470748 23.2011054,5.1801619 22.595498,7.67576327 C22.0787415,9.80577551 20.7669359,11.2507102 18.7602698,12.0714631 C18.0442083,12.3643097 17.2964928,12.5794015 16.569469,12.8277287 C15.0990985,9.53748027 15.2335678,6.86605306 17.5416573,4.61971701 C18.8772101,3.31978503 20.3960399,2.2064 21.8369005,1.01475102 C22.2287295,0.690170068 22.6366133,0.384619048 23.1273712,0 Z" id="Fill-8" fill="#3CC961"></path>
                    </g>
                </g>
            </g>
        </g>
    </g>
</svg>