<svg xmlns="http://www.w3.org/2000/svg" viewBox="38.81 148.84500122070312 497.3800048828125 277.3100004196167"><rect height="100%" width="100%" x="38.81" y="148.84500122070312" fill="#ffffff"/> <svg xmlns="http://www.w3.org/2000/svg" xmlns:xlink="http://www.w3.org/1999/xlink" version="1.1" x="246.00799237060548" y="218.84500122070312" viewBox="15.09999942779541 27.300003051757812 132.3000030517578 110.09999084472656" xml:space="preserve" height="69.06119695852414" width="82.9864273071289" preserveAspectRatio="xMinYMin" enable-background="new 0 0 162.4 165.2" style="overflow: visible;"><g id="Layer_1" class="st0" style="display: none;"></g><g id="Letters" class="st0" style="display: none;"></g><linearGradient id="SVGID_2_" gradientUnits="userSpaceOnUse" x1="30.2407" y1="150.1237" x2="130.7928" y2="49.5716" style=""><stop offset="3.073330e-02" style="stop-color: #6B3D91;"></stop><stop offset="0.3219" style="stop-color: #AE278F;"></stop><stop offset="0.6364" style="stop-color: #E70075;"></stop><stop offset="0.6973" style="stop-color: #EC006C;"></stop><stop offset="0.7983" style="stop-color: #F80152;"></stop><stop offset="0.849" style="stop-color: #FF0143;"></stop><stop offset="0.8838" style="stop-color: #FF0B39;"></stop><stop offset="0.9433" style="stop-color: #FF271F;"></stop><stop offset="1" style="stop-color: #FF4700;"></stop></linearGradient><path style="fill: url(#SVGID_2_);" d="M92.9,51.9c3.2-1.8,7.5-2.7,13-2.7c4.5,0,8.8,0.6,13.1,1.7c4.2,1.2,7.9,2.5,11.1,4    c2.3,1.5,4.8,2.3,7.3,2.3c2.9,0,5.3-1.1,7.2-3.3c1.9-2.2,2.8-4.7,2.8-7.7c0-3.8-1.5-6.9-4.6-9.3c-3.6-2.8-8.7-5.1-15.1-6.8    c-6.1-1.6-12.7-2.4-19.8-2.5c-0.5-0.2-1-0.3-1.5-0.3h-32c-2.8,0-5,2.2-5,5s2.2,5,5,5h7.8v0.1c2.4,0.4,4.2,2.4,4.2,4.9    c0,2.8-2.2,5-5,5H63.8H53.6c-2.8,0-5,2.2-5,5s2.2,5,5,5h7.1c0,0,0,0.1,0,0.1c2.4,0.4,4.1,2.4,4.1,4.9c0,2.4-1.7,4.4-3.9,4.9    c0,0-25.9,0.1-25.9,0.1c-2.8,0-5,2.2-5,5s2.2,5,5,5l42.2,0c2.8,0,5,2.2,5,5c0,2.6-2,4.7-4.6,5c0.1,0-5.5,0.1-5.5,0.1    c-2.8,0-5,2.2-5,5s2.2,5,5,5h43.4c2.8,0,5,2.2,5,5c0,2.3-1.6,4.3-3.8,4.8c0,0.1-71.6,0.2-71.6,0.2c-2.8,0-5,2.2-5,5s2.2,5,5,5    h39.3c2.8,0,5,2.2,5,5s-2.2,5-5,5H64.6c-2.8,0-5,2.2-5,5s2.2,5,5,5c0,0,33.9,0,34,0c14.5-0.1,25.7-3,33.6-8.7    c8.1-5.8,12.1-14.1,12.1-24.8c0-6.6-1.7-11.9-5.2-15.9c-3.4-4-7.5-7.1-12.2-9.2c-4.7-2.1-10.8-4.2-18.1-6.5    c-7.2-2.1-12.4-4-15.7-5.8c-3.3-1.7-4.9-4.2-4.9-7.4C88.1,56.1,89.7,53.7,92.9,51.9z"></path><linearGradient id="SVGID_4_" gradientUnits="userSpaceOnUse" x1="8.1587" y1="128.0417" x2="108.7108" y2="27.4896" style=""><stop offset="3.073330e-02" style="stop-color: #6B3D91;"></stop><stop offset="0.3219" style="stop-color: #AE278F;"></stop><stop offset="0.6364" style="stop-color: #E70075;"></stop><stop offset="0.6973" style="stop-color: #EC006C;"></stop><stop offset="0.7983" style="stop-color: #F80152;"></stop><stop offset="0.849" style="stop-color: #FF0143;"></stop><stop offset="0.8838" style="stop-color: #FF0B39;"></stop><stop offset="0.9433" style="stop-color: #FF271F;"></stop><stop offset="1" style="stop-color: #FF4700;"></stop></linearGradient><path style="fill: url(#SVGID_4_);" d="M27.1,117.6h-7c-2.8,0-5-2.2-5-5s2.2-5,5-5h7c2.8,0,5,2.2,5,5S29.8,117.6,27.1,117.6z"></path><linearGradient id="SVGID_5_" gradientUnits="userSpaceOnUse" x1="-16.451" y1="103.432" x2="84.1011" y2="2.8799" style=""><stop offset="3.073330e-02" style="stop-color: #6B3D91;"></stop><stop offset="0.3219" style="stop-color: #AE278F;"></stop><stop offset="0.6364" style="stop-color: #E70075;"></stop><stop offset="0.6973" style="stop-color: #EC006C;"></stop><stop offset="0.7983" style="stop-color: #F80152;"></stop><stop offset="0.849" style="stop-color: #FF0143;"></stop><stop offset="0.8838" style="stop-color: #FF0B39;"></stop><stop offset="0.9433" style="stop-color: #FF271F;"></stop><stop offset="1" style="stop-color: #FF4700;"></stop></linearGradient><path class="st33" d="M54.4,37.6c-1.3,0-2.6-0.5-3.5-1.5c-0.2-0.2-0.4-0.5-0.6-0.8s-0.3-0.6-0.5-0.9c-0.1-0.3-0.2-0.6-0.3-0.9    c-0.1-0.3-0.1-0.6-0.1-1c0-0.3,0-0.6,0.1-1c0.1-0.3,0.2-0.6,0.3-0.9c0.1-0.3,0.3-0.6,0.5-0.9c0.2-0.3,0.4-0.5,0.6-0.8    c1.2-1.2,2.9-1.7,4.5-1.4c0.3,0.1,0.6,0.2,0.9,0.3c0.3,0.1,0.6,0.3,0.9,0.5c0.3,0.2,0.5,0.4,0.8,0.6c0.2,0.2,0.4,0.5,0.6,0.8    c0.2,0.3,0.3,0.6,0.5,0.9c0.1,0.3,0.2,0.6,0.3,0.9c0.1,0.3,0.1,0.6,0.1,1c0,0.3,0,0.7-0.1,1c-0.1,0.3-0.2,0.6-0.3,0.9    c-0.1,0.3-0.3,0.6-0.5,0.9c-0.2,0.3-0.4,0.5-0.6,0.8c-0.2,0.2-0.5,0.4-0.8,0.6c-0.3,0.2-0.6,0.3-0.9,0.5c-0.3,0.1-0.6,0.2-0.9,0.3    C55,37.6,54.7,37.6,54.4,37.6z" style="fill: url(#SVGID_5_);"></path><linearGradient id="SVGID_6_" gradientUnits="userSpaceOnUse" x1="-13.5912" y1="106.2918" x2="86.9609" y2="5.7398" style=""><stop offset="3.073330e-02" style="stop-color: #6B3D91;"></stop><stop offset="0.3219" style="stop-color: #AE278F;"></stop><stop offset="0.6364" style="stop-color: #E70075;"></stop><stop offset="0.6973" style="stop-color: #EC006C;"></stop><stop offset="0.7983" style="stop-color: #F80152;"></stop><stop offset="0.849" style="stop-color: #FF0143;"></stop><stop offset="0.8838" style="stop-color: #FF0B39;"></stop><stop offset="0.9433" style="stop-color: #FF271F;"></stop><stop offset="1" style="stop-color: #FF4700;"></stop></linearGradient><path class="st34" d="M20.1,77.6c-1.3,0-2.6-0.5-3.5-1.5c-0.2-0.2-0.4-0.5-0.6-0.8c-0.2-0.3-0.3-0.6-0.5-0.9    c-0.1-0.3-0.2-0.6-0.3-0.9c-0.1-0.3-0.1-0.6-0.1-1c0-0.3,0-0.6,0.1-1c0.1-0.3,0.2-0.6,0.3-0.9c0.1-0.3,0.3-0.6,0.5-0.9    c0.2-0.3,0.4-0.5,0.6-0.8c0.2-0.2,0.5-0.4,0.8-0.6c0.3-0.2,0.6-0.3,0.9-0.5c0.3-0.1,0.6-0.2,0.9-0.3c0.6-0.1,1.3-0.1,1.9,0    c0.3,0.1,0.6,0.2,0.9,0.3c0.3,0.1,0.6,0.3,0.9,0.5c0.3,0.2,0.5,0.4,0.8,0.6c0.2,0.2,0.4,0.5,0.6,0.8c0.2,0.3,0.3,0.6,0.5,0.9    c0.1,0.3,0.2,0.6,0.3,0.9c0.1,0.3,0.1,0.6,0.1,1c0,0.3,0,0.7-0.1,1c-0.1,0.3-0.2,0.6-0.3,0.9c-0.1,0.3-0.3,0.6-0.5,0.9    c-0.2,0.3-0.4,0.5-0.6,0.8C22.7,77.1,21.4,77.6,20.1,77.6z" style="fill: url(#SVGID_6_);"></path></svg> <svg y="346.8450012207031" viewBox="0.42000001668930054 3.380000114440918 133.44000244140625 9.3100004196167" x="220.7799954223633" height="9.3100004196167" width="133.44000244140625" style="overflow: visible;"><g fill="#000" style=""><path d="M12.99 3.48L14.22 3.48L11.18 12.58L9.82 12.58L7.33 5.32L4.85 12.58L3.46 12.58L0.42 3.48L1.76 3.48L4.21 10.88L6.77 3.48L7.97 3.48L10.48 10.92L12.99 3.48ZM18.11 11.45L23.41 11.45L23.41 12.58L16.81 12.58L16.81 3.48L23.23 3.48L23.23 4.62L18.11 4.62L18.11 7.41L22.67 7.41L22.67 8.52L18.11 8.52L18.11 11.45ZM40.70 12.58L39.45 12.58L39.44 5.95L36.15 11.48L35.55 11.48L32.26 5.99L32.26 12.58L31.02 12.58L31.02 3.48L32.08 3.48L35.88 9.88L39.62 3.48L40.69 3.48L40.70 12.58ZM51.23 12.58L50.23 10.31L45.39 10.31L44.39 12.58L43.05 12.58L47.17 3.48L48.46 3.48L52.59 12.58L51.23 12.58ZM45.85 9.27L49.77 9.27L47.81 4.81L45.85 9.27ZM61.39 12.58L57.91 8.54L56.25 10.23L56.25 12.58L54.95 12.58L54.95 3.48L56.25 3.48L56.25 8.57L61.19 3.48L62.67 3.48L58.78 7.58L62.92 12.58L61.39 12.58ZM66.59 11.45L71.90 11.45L71.90 12.58L65.29 12.58L65.29 3.48L71.72 3.48L71.72 4.62L66.59 4.62L66.59 7.41L71.16 7.41L71.16 8.52L66.59 8.52L66.59 11.45ZM79.50 12.58L79.50 3.48L80.80 3.48L80.80 12.58L79.50 12.58ZM86.34 12.58L86.34 4.62L83.22 4.62L83.22 3.48L90.74 3.48L90.74 4.62L87.62 4.62L87.62 12.58L86.34 12.58ZM98.96 11.45L104.26 11.45L104.26 12.58L97.66 12.58L97.66 3.48L104.08 3.48L104.08 4.62L98.96 4.62L98.96 7.41L103.52 7.41L103.52 8.52L98.96 8.52L98.96 11.45ZM114.17 12.58L113.17 10.31L108.33 10.31L107.33 12.58L105.99 12.58L110.11 3.48L111.40 3.48L115.53 12.58L114.17 12.58ZM108.79 9.27L112.71 9.27L110.75 4.81L108.79 9.27ZM120.54 12.69Q119.51 12.69 118.55 12.37Q117.60 12.05 117.05 11.54L117.05 11.54L117.53 10.53Q118.05 11.00 118.87 11.29Q119.68 11.58 120.54 11.58L120.54 11.58Q121.67 11.58 122.23 11.20Q122.79 10.82 122.79 10.18L122.79 10.18Q122.79 9.71 122.48 9.42Q122.17 9.13 121.73 8.97Q121.28 8.81 120.46 8.62L120.46 8.62Q119.43 8.37 118.80 8.13Q118.17 7.88 117.72 7.36Q117.27 6.85 117.27 5.98L117.27 5.98Q117.27 5.25 117.66 4.67Q118.04 4.08 118.82 3.73Q119.60 3.38 120.76 3.38L120.76 3.38Q121.56 3.38 122.34 3.59Q123.12 3.80 123.68 4.19L123.68 4.19L123.25 5.23Q122.68 4.86 122.03 4.67Q121.38 4.49 120.76 4.49L120.76 4.49Q119.65 4.49 119.10 4.89Q118.55 5.29 118.55 5.93L118.55 5.93Q118.55 6.40 118.86 6.69Q119.17 6.98 119.63 7.14Q120.09 7.31 120.89 7.49L120.89 7.49Q121.91 7.74 122.54 7.98Q123.16 8.23 123.61 8.74Q124.06 9.24 124.06 10.10L124.06 10.10Q124.06 10.82 123.67 11.41Q123.28 12.00 122.49 12.34Q121.69 12.69 120.54 12.69L120.54 12.69ZM133.86 3.48L130.25 9.44L130.25 12.58L128.96 12.58L128.96 9.41L125.35 3.48L126.74 3.48L129.65 8.28L132.57 3.48L133.86 3.48Z" transform="translate(0, 0)"></path></g></svg> <svg y="314.555" viewBox="0.30000001192092896 5.800000190734863 357.3800048828125 16.829998016357422" x="108.81" height="16.829998016357422" width="357.3800048828125" style="overflow: visible;"><g fill="#000" style=""><path d="M7.31 22.63Q5.31 22.63 3.42 22.18Q1.52 21.73 0.30 20.98L0.30 20.98L2.05 17.02Q3.20 17.69 4.62 18.09Q6.05 18.49 7.36 18.49L7.36 18.49Q8.49 18.49 8.97 18.27Q9.45 18.05 9.45 17.62L9.45 17.62Q9.45 17.11 8.82 16.86Q8.19 16.61 6.74 16.31L6.74 16.31Q4.88 15.92 3.63 15.47Q2.39 15.02 1.47 14.00Q0.55 12.97 0.55 11.22L0.55 11.22Q0.55 9.71 1.40 8.46Q2.25 7.22 3.94 6.51Q5.63 5.80 8.05 5.80L8.05 5.80Q9.71 5.80 11.30 6.15Q12.90 6.51 14.12 7.20L14.12 7.20L12.49 11.13Q10.12 9.94 8.00 9.94L8.00 9.94Q5.91 9.94 5.91 10.95L5.91 10.95Q5.91 11.43 6.53 11.67Q7.15 11.91 8.58 12.19L8.58 12.19Q10.42 12.54 11.68 12.98Q12.95 13.43 13.88 14.44Q14.81 15.46 14.81 17.20L14.81 17.20Q14.81 18.72 13.96 19.95Q13.11 21.18 11.42 21.91Q9.73 22.63 7.31 22.63L7.31 22.63ZM32.47 22.26L31.39 19.46L25.27 19.46L24.19 22.26L18.67 22.26L25.71 6.16L31.05 6.16L38.09 22.26L32.47 22.26ZM26.77 15.55L29.90 15.55L28.33 11.50L26.77 15.55ZM45.65 22.26L45.65 10.37L40.94 10.37L40.94 6.16L55.79 6.16L55.79 10.37L51.08 10.37L51.08 22.26L45.65 22.26ZM69.41 22.63Q66.81 22.63 64.74 21.55Q62.67 20.47 61.50 18.55Q60.32 16.63 60.32 14.21L60.32 14.21Q60.32 11.80 61.50 9.88Q62.67 7.96 64.74 6.88Q66.81 5.80 69.41 5.80L69.41 5.80Q72.01 5.80 74.08 6.88Q76.15 7.96 77.32 9.88Q78.49 11.80 78.49 14.21L78.49 14.21Q78.49 16.63 77.32 18.55Q76.15 20.47 74.08 21.55Q72.01 22.63 69.41 22.63L69.41 22.63ZM69.41 18.24Q70.42 18.24 71.24 17.74Q72.05 17.25 72.54 16.34Q73.02 15.43 73.02 14.21L73.02 14.21Q73.02 12.99 72.54 12.09Q72.05 11.18 71.24 10.68Q70.42 10.19 69.41 10.19L69.41 10.19Q68.40 10.19 67.58 10.68Q66.76 11.18 66.28 12.09Q65.80 12.99 65.80 14.21L65.80 14.21Q65.80 15.43 66.28 16.34Q66.76 17.25 67.58 17.74Q68.40 18.24 69.41 18.24L69.41 18.24ZM90.47 22.63Q88.47 22.63 86.58 22.18Q84.68 21.73 83.46 20.98L83.46 20.98L85.21 17.02Q86.36 17.69 87.78 18.09Q89.21 18.49 90.52 18.49L90.52 18.49Q91.65 18.49 92.13 18.27Q92.61 18.05 92.61 17.62L92.61 17.62Q92.61 17.11 91.98 16.86Q91.35 16.61 89.90 16.31L89.90 16.31Q88.04 15.92 86.79 15.47Q85.55 15.02 84.63 14.00Q83.71 12.97 83.71 11.22L83.71 11.22Q83.71 9.71 84.56 8.46Q85.41 7.22 87.10 6.51Q88.80 5.80 91.21 5.80L91.21 5.80Q92.87 5.80 94.46 6.15Q96.06 6.51 97.28 7.20L97.28 7.20L95.65 11.13Q93.28 9.94 91.16 9.94L91.16 9.94Q89.07 9.94 89.07 10.95L89.07 10.95Q89.07 11.43 89.69 11.67Q90.31 11.91 91.74 12.19L91.74 12.19Q93.58 12.54 94.84 12.98Q96.11 13.43 97.04 14.44Q97.97 15.46 97.97 17.20L97.97 17.20Q97.97 18.72 97.12 19.95Q96.27 21.18 94.58 21.91Q92.89 22.63 90.47 22.63L90.47 22.63ZM114.02 6.16L119.45 6.16L119.45 22.26L114.02 22.26L114.02 16.33L109.01 16.33L109.01 22.26L103.58 22.26L103.58 6.16L109.01 6.16L109.01 11.87L114.02 11.87L114.02 6.16ZM126.07 22.26L126.07 6.16L131.50 6.16L131.50 22.26L126.07 22.26ZM154.36 18.17L162.41 18.17L162.41 22.26L149.02 22.26L149.02 6.16L162.11 6.16L162.11 10.26L154.36 10.26L154.36 12.14L161.17 12.14L161.17 16.05L154.36 16.05L154.36 18.17ZM179.08 6.16L184.37 6.16L184.37 22.26L179.91 22.26L173.79 14.95L173.79 22.26L168.50 22.26L168.50 6.16L172.97 6.16L179.08 13.48L179.08 6.16ZM201.64 17.85L201.64 13.78L206.36 13.78L206.36 20.59Q204.93 21.57 203.05 22.10Q201.16 22.63 199.34 22.63L199.34 22.63Q196.77 22.63 194.72 21.56Q192.67 20.49 191.51 18.57Q190.35 16.65 190.35 14.21L190.35 14.21Q190.35 11.78 191.51 9.86Q192.67 7.93 194.76 6.87Q196.84 5.80 199.46 5.80L199.46 5.80Q201.83 5.80 203.70 6.59Q205.58 7.38 206.82 8.90L206.82 8.90L203.35 11.96Q201.83 10.19 199.73 10.19L199.73 10.19Q197.94 10.19 196.88 11.27Q195.82 12.35 195.82 14.21L195.82 14.21Q195.82 16.03 196.87 17.13Q197.92 18.24 199.67 18.24L199.67 18.24Q200.70 18.24 201.64 17.85L201.64 17.85ZM212.68 22.26L212.68 6.16L218.11 6.16L218.11 22.26L212.68 22.26ZM235.31 6.16L240.60 6.16L240.60 22.26L236.14 22.26L230.02 14.95L230.02 22.26L224.73 22.26L224.73 6.16L229.19 6.16L235.31 13.48L235.31 6.16ZM252.56 18.17L260.61 18.17L260.61 22.26L247.22 22.26L247.22 6.16L260.31 6.16L260.31 10.26L252.56 10.26L252.56 12.14L259.37 12.14L259.37 16.05L252.56 16.05L252.56 18.17ZM272.04 18.17L280.09 18.17L280.09 22.26L266.70 22.26L266.70 6.16L279.79 6.16L279.79 10.26L272.04 10.26L272.04 12.14L278.85 12.14L278.85 16.05L272.04 16.05L272.04 18.17ZM295.82 22.26L293.08 18.22L291.61 18.22L291.61 22.26L286.18 22.26L286.18 6.16L293.93 6.16Q296.16 6.16 297.82 6.90Q299.48 7.64 300.37 9.02Q301.27 10.40 301.27 12.24L301.27 12.24Q301.27 13.96 300.49 15.25Q299.71 16.54 298.23 17.30L298.23 17.30L301.62 22.26L295.82 22.26ZM295.80 12.24Q295.80 11.34 295.24 10.84Q294.69 10.35 293.59 10.35L293.59 10.35L291.61 10.35L291.61 14.12L293.59 14.12Q294.69 14.12 295.24 13.63Q295.80 13.13 295.80 12.24L295.80 12.24ZM307.32 22.26L307.32 6.16L312.74 6.16L312.74 22.26L307.32 22.26ZM329.95 6.16L335.24 6.16L335.24 22.26L330.77 22.26L324.66 14.95L324.66 22.26L319.37 22.26L319.37 6.16L323.83 6.16L329.95 13.48L329.95 6.16ZM352.51 17.85L352.51 13.78L357.22 13.78L357.22 20.59Q355.80 21.57 353.91 22.10Q352.02 22.63 350.21 22.63L350.21 22.63Q347.63 22.63 345.58 21.56Q343.54 20.49 342.38 18.57Q341.21 16.65 341.21 14.21L341.21 14.21Q341.21 11.78 342.38 9.86Q343.54 7.93 345.62 6.87Q347.70 5.80 350.32 5.80L350.32 5.80Q352.69 5.80 354.57 6.59Q356.44 7.38 357.68 8.90L357.68 8.90L354.21 11.96Q352.69 10.19 350.60 10.19L350.60 10.19Q348.81 10.19 347.75 11.27Q346.69 12.35 346.69 14.21L346.69 14.21Q346.69 16.03 347.74 17.13Q348.78 18.24 350.53 18.24L350.53 18.24Q351.56 18.24 352.51 17.85L352.51 17.85Z" transform="translate(0, 0)"></path></g></svg></svg>